<svg viewBox="0 0 900 380" xmlns="http://www.w3.org/2000/svg">
<title>Semantica Architecture Overview</title>
<defs>
  <style>text{font-family:Inter,system-ui,-apple-system,sans-serif}</style>
  <filter id="sh" x="-10%" y="-10%" width="120%" height="130%">
    <feDropShadow dx="0" dy="2" stdDeviation="5" flood-color="#00000012"/>
  </filter>
  <linearGradient id="gi" x1="0" y1="0" x2="0" y2="1">
    <stop offset="0%" stop-color="#818cf8"/><stop offset="100%" stop-color="#4f46e5"/>
  </linearGradient>
  <linearGradient id="gp" x1="0" y1="0" x2="0" y2="1">
    <stop offset="0%" stop-color="#a78bfa"/><stop offset="100%" stop-color="#7c3aed"/>
  </linearGradient>
  <linearGradient id="gc" x1="0" y1="0" x2="0" y2="1">
    <stop offset="0%" stop-color="#38bdf8"/><stop offset="100%" stop-color="#0284c7"/>
  </linearGradient>
  <linearGradient id="ge" x1="0" y1="0" x2="0" y2="1">
    <stop offset="0%" stop-color="#34d399"/><stop offset="100%" stop-color="#059669"/>
  </linearGradient>
  <clipPath id="c1"><rect x="16" y="16" width="188" height="348" rx="12"/></clipPath>
  <clipPath id="c2"><rect x="240" y="16" width="188" height="348" rx="12"/></clipPath>
  <clipPath id="c3"><rect x="464" y="16" width="188" height="348" rx="12"/></clipPath>
  <clipPath id="c4"><rect x="688" y="16" width="196" height="348" rx="12"/></clipPath>
  <marker id="arr" markerWidth="9" markerHeight="7" refX="8" refY="3.5" orient="auto">
    <polygon points="0 0, 9 3.5, 0 7" fill="#94a3b8"/>
  </marker>
</defs>

<rect width="900" height="380" fill="#f1f5f9" rx="16"/>

<!-- ── COLUMN 1: INGESTION ── -->
<rect x="16" y="16" width="188" height="348" rx="12" fill="white" filter="url(#sh)"/>
<rect x="16" y="16" width="188" height="70" fill="url(#gi)" clip-path="url(#c1)"/>
<text x="110" y="41" text-anchor="middle" font-size="9" font-weight="700" fill="white" opacity="0.75" letter-spacing="1.8">INGESTION</text>
<text x="110" y="62" text-anchor="middle" font-size="13.5" font-weight="700" fill="white">Data Sources</text>

<rect x="26" y="86" width="4" height="28" rx="2" fill="#6366f1"/>
<text x="38" y="102" font-size="11.5" font-weight="600" fill="#0f172a">Files &amp; PDFs</text>
<text x="38" y="115" font-size="10" fill="#64748b">FileIngestor · DocxParser</text>
<line x1="30" y1="124" x2="196" y2="124" stroke="#f1f5f9" stroke-width="1"/>

<rect x="26" y="128" width="4" height="28" rx="2" fill="#6366f1"/>
<text x="38" y="144" font-size="11.5" font-weight="600" fill="#0f172a">Web &amp; APIs</text>
<text x="38" y="157" font-size="10" fill="#64748b">WebIngestor · REST</text>
<line x1="30" y1="166" x2="196" y2="166" stroke="#f1f5f9" stroke-width="1"/>

<rect x="26" y="170" width="4" height="28" rx="2" fill="#6366f1"/>
<text x="38" y="186" font-size="11.5" font-weight="600" fill="#0f172a">Databases</text>
<text x="38" y="199" font-size="10" fill="#64748b">DBIngestor · DuckDB</text>
<line x1="30" y1="208" x2="196" y2="208" stroke="#f1f5f9" stroke-width="1"/>

<rect x="26" y="212" width="4" height="28" rx="2" fill="#6366f1"/>
<text x="38" y="228" font-size="11.5" font-weight="600" fill="#0f172a">Streams</text>
<text x="38" y="241" font-size="10" fill="#64748b">StreamIngestor · Kafka</text>
<line x1="30" y1="250" x2="196" y2="250" stroke="#f1f5f9" stroke-width="1"/>

<rect x="26" y="254" width="4" height="28" rx="2" fill="#6366f1"/>
<text x="38" y="270" font-size="11.5" font-weight="600" fill="#0f172a">Parquet &amp; XML</text>
<text x="38" y="283" font-size="10" fill="#64748b">PyArrow · lxml · v0.5.0</text>

<!-- Arrow 1 -->
<line x1="206" y1="190" x2="232" y2="190" stroke="#cbd5e1" stroke-width="1.5" marker-end="url(#arr)"/>

<!-- ── COLUMN 2: PROCESSING ── -->
<rect x="240" y="16" width="188" height="348" rx="12" fill="white" filter="url(#sh)"/>
<rect x="240" y="16" width="188" height="70" fill="url(#gp)" clip-path="url(#c2)"/>
<text x="334" y="41" text-anchor="middle" font-size="9" font-weight="700" fill="white" opacity="0.75" letter-spacing="1.8">PROCESSING</text>
<text x="334" y="62" text-anchor="middle" font-size="13.5" font-weight="700" fill="white">Semantic Engine</text>

<rect x="250" y="86" width="4" height="28" rx="2" fill="#8b5cf6"/>
<text x="262" y="102" font-size="11.5" font-weight="600" fill="#0f172a">Parse &amp; Layout</text>
<text x="262" y="115" font-size="10" fill="#64748b">DocumentParser · Docling</text>
<line x1="254" y1="124" x2="420" y2="124" stroke="#f1f5f9" stroke-width="1"/>

<rect x="250" y="128" width="4" height="28" rx="2" fill="#8b5cf6"/>
<text x="262" y="144" font-size="11.5" font-weight="600" fill="#0f172a">Normalize</text>
<text x="262" y="157" font-size="10" fill="#64748b">TextNormalizer · dates</text>
<line x1="254" y1="166" x2="420" y2="166" stroke="#f1f5f9" stroke-width="1"/>

<rect x="250" y="170" width="4" height="28" rx="2" fill="#8b5cf6"/>
<text x="262" y="186" font-size="11.5" font-weight="600" fill="#0f172a">NER &amp; Relations</text>
<text x="262" y="199" font-size="10" fill="#64748b">pattern · ml · llm</text>
<line x1="254" y1="208" x2="420" y2="208" stroke="#f1f5f9" stroke-width="1"/>

<rect x="250" y="212" width="4" height="28" rx="2" fill="#8b5cf6"/>
<text x="262" y="228" font-size="11.5" font-weight="600" fill="#0f172a">Build Graph</text>
<text x="262" y="241" font-size="10" fill="#64748b">GraphBuilder · merge</text>
<line x1="254" y1="250" x2="420" y2="250" stroke="#f1f5f9" stroke-width="1"/>

<rect x="250" y="254" width="4" height="28" rx="2" fill="#8b5cf6"/>
<text x="262" y="270" font-size="11.5" font-weight="600" fill="#0f172a">QA &amp; Dedup</text>
<text x="262" y="283" font-size="10" fill="#64748b">ConflictDetector · merge</text>

<!-- Arrow 2 -->
<line x1="430" y1="190" x2="456" y2="190" stroke="#cbd5e1" stroke-width="1.5" marker-end="url(#arr)"/>

<!-- ── COLUMN 3: INTELLIGENCE ── -->
<rect x="464" y="16" width="188" height="348" rx="12" fill="white" filter="url(#sh)"/>
<rect x="464" y="16" width="188" height="70" fill="url(#gc)" clip-path="url(#c3)"/>
<text x="558" y="41" text-anchor="middle" font-size="9" font-weight="700" fill="white" opacity="0.75" letter-spacing="1.8">INTELLIGENCE</text>
<text x="558" y="62" text-anchor="middle" font-size="13.5" font-weight="700" fill="white">Knowledge Store</text>

<rect x="474" y="86" width="4" height="28" rx="2" fill="#0891b2"/>
<text x="486" y="102" font-size="11.5" font-weight="600" fill="#0f172a">Knowledge Graph</text>
<text x="486" y="115" font-size="10" fill="#64748b">NetworkX · Neo4j · AGE</text>
<line x1="478" y1="124" x2="644" y2="124" stroke="#f1f5f9" stroke-width="1"/>

<rect x="474" y="128" width="4" height="28" rx="2" fill="#0891b2"/>
<text x="486" y="144" font-size="11.5" font-weight="600" fill="#0f172a">Vector Store</text>
<text x="486" y="157" font-size="10" fill="#64748b">FAISS · Pinecone · Qdrant</text>
<line x1="478" y1="166" x2="644" y2="166" stroke="#f1f5f9" stroke-width="1"/>

<rect x="474" y="170" width="4" height="28" rx="2" fill="#0891b2"/>
<text x="486" y="186" font-size="11.5" font-weight="600" fill="#0f172a">Ontology</text>
<text x="486" y="199" font-size="10" fill="#64748b">OWL · SHACL · SKOS</text>
<line x1="478" y1="208" x2="644" y2="208" stroke="#f1f5f9" stroke-width="1"/>

<rect x="474" y="212" width="4" height="28" rx="2" fill="#0891b2"/>
<text x="486" y="228" font-size="11.5" font-weight="600" fill="#0f172a">Triplet Store</text>
<text x="486" y="241" font-size="10" fill="#64748b">SPARQL · Blazegraph · Jena</text>
<line x1="478" y1="250" x2="644" y2="250" stroke="#f1f5f9" stroke-width="1"/>

<rect x="474" y="254" width="4" height="28" rx="2" fill="#0891b2"/>
<text x="486" y="270" font-size="11.5" font-weight="600" fill="#0f172a">Embeddings</text>
<text x="486" y="283" font-size="10" fill="#64748b">ST · FastEmbed · BGE</text>

<!-- Arrow 3 -->
<line x1="654" y1="190" x2="680" y2="190" stroke="#cbd5e1" stroke-width="1.5" marker-end="url(#arr)"/>

<!-- ── COLUMN 4: APPLICATION ── -->
<rect x="688" y="16" width="196" height="348" rx="12" fill="white" filter="url(#sh)"/>
<rect x="688" y="16" width="196" height="70" fill="url(#ge)" clip-path="url(#c4)"/>
<text x="786" y="41" text-anchor="middle" font-size="9" font-weight="700" fill="white" opacity="0.75" letter-spacing="1.8">APPLICATION</text>
<text x="786" y="62" text-anchor="middle" font-size="13.5" font-weight="700" fill="white">Output Layer</text>

<rect x="698" y="86" width="4" height="28" rx="2" fill="#059669"/>
<text x="710" y="102" font-size="11.5" font-weight="600" fill="#0f172a">GraphRAG Agents</text>
<text x="710" y="115" font-size="10" fill="#64748b">AgentContext · memory</text>
<line x1="702" y1="124" x2="876" y2="124" stroke="#f1f5f9" stroke-width="1"/>

<rect x="698" y="128" width="4" height="28" rx="2" fill="#059669"/>
<text x="710" y="144" font-size="11.5" font-weight="600" fill="#0f172a">Decision Tracking</text>
<text x="710" y="157" font-size="10" fill="#64748b">causal chains · audit</text>
<line x1="702" y1="166" x2="876" y2="166" stroke="#f1f5f9" stroke-width="1"/>

<rect x="698" y="170" width="4" height="28" rx="2" fill="#059669"/>
<text x="710" y="186" font-size="11.5" font-weight="600" fill="#0f172a">Reasoning</text>
<text x="710" y="199" font-size="10" fill="#64748b">forward chain · Datalog</text>
<line x1="702" y1="208" x2="876" y2="208" stroke="#f1f5f9" stroke-width="1"/>

<rect x="698" y="212" width="4" height="28" rx="2" fill="#059669"/>
<text x="710" y="228" font-size="11.5" font-weight="600" fill="#0f172a">Explorer &amp; Hub</text>
<text x="710" y="241" font-size="10" fill="#64748b">SHACL Studio · Ontology</text>
<line x1="702" y1="250" x2="876" y2="250" stroke="#f1f5f9" stroke-width="1"/>

<rect x="698" y="254" width="4" height="28" rx="2" fill="#059669"/>
<text x="710" y="270" font-size="11.5" font-weight="600" fill="#0f172a">Export &amp; Provenance</text>
<text x="710" y="283" font-size="10" fill="#64748b">RDF · Parquet · PROV-O</text>
</svg>
